<svg xmlns="http://www.w3.org/2000/svg" viewBox="0 0 900 600" role="img" aria-label="Banjir lokal">
  <rect width="900" height="600" fill="#d8e6ed"/>
  <path d="M0 312 C160 260 280 265 410 235 C585 194 735 210 900 160 L900 600 L0 600 Z" fill="#667383"/>
  <path d="M0 380 C190 330 330 360 466 328 C620 292 745 310 900 270 L900 600 L0 600 Z" fill="#17aeb8" opacity=".76"/>
  <path d="M50 430 C170 402 270 430 390 402 C510 374 620 406 750 374" stroke="#d9f7fb" stroke-width="8" fill="none" opacity=".75"/>
  <path d="M260 480 C365 455 465 480 570 454 C675 428 752 453 840 432" stroke="#d9f7fb" stroke-width="7" fill="none" opacity=".62"/>
  <rect x="75" y="215" width="145" height="95" rx="6" fill="#f7f9fb"/>
  <rect x="105" y="245" width="44" height="42" fill="#2477d9" opacity=".35"/>
  <rect x="165" y="245" width="34" height="42" fill="#2477d9" opacity=".35"/>
</svg>
